<?xml version="1.0" encoding="UTF-8"?>
<svg id="Laag_2" data-name="Laag 2" xmlns="http://www.w3.org/2000/svg" viewBox="0 0 1778.67 334.64">
  <defs>
    <style>
      .cls-1 {
        fill: #fff;
      }
    </style>
  </defs>
  <g id="Laag_1-2" data-name="Laag 1">
    <g>
      <path class="cls-1" d="M867.34,220.77c-.02-4.28-.45-8.47-1.22-12.57-.64-3.43-1.55-6.76-2.66-10.01-.87-2.53-1.87-5-3.01-7.4-2.39-5.05-5.27-9.84-8.72-14.21-12.56-15.92-31.58-26.68-52.93-28.19-1.84-.14-3.81-.23-5.78-.29-.07,0-.15,0-.22,0-1.92-.05-3.83-.07-5.66-.08-.04,0-2.13,0-2.3,0-.51,0-1.01.01-1.5.02-.1,0-.2,0-.3,0-.59,0-1.15.02-1.68.03-.07,0-1.77.04-1.9.05-.33,0-.64.02-.93.03-.13,0-1.32.04-1.41.05-.27,0-1.19.05-1.32.05l78.28-98.94.22-.27h0,0s0,0,0,0h-51.92l-.02.03-114.17.07c-.17,0-2.34,0-2.47,0-.18,0-.52,0-.56,0-.12,0-.28,0-.34,0-12.47.22-24.18,3.54-34.39,9.23-2.04,1.14-4.02,2.37-5.94,3.69-7.66,5.28-14.27,11.98-19.44,19.72-7.75,11.61-12.27,25.57-12.27,40.59,0,16.39,5.38,31.52,14.47,43.72,7.79,10.46,18.31,18.76,30.5,23.88,2.03.85,4.11,1.62,6.23,2.29,4.24,1.34,8.65,2.31,13.18,2.86.43.05.87.08,1.3.13,2.16.22,4.34.39,6.55.43h0c.36.02.8.02,1.29.03.16,0,.35,0,.52,0,.36,0,.71,0,1.1.01.21,0,.43,0,.65,0,.36,0,.72,0,1.08,0,.25,0,.49,0,.73,0,.36,0,.7,0,1.04,0,.07,0,.52,0,.67,0,.26,0,.5,0,.74,0,.35,0,.97,0,.98,0,.29,0,1.17,0,1.17,0l-78.28,98.95h177.74c25.13.01,47.33-13.02,60.45-32.61,3.94-5.88,7.05-12.34,9.19-19.23.71-2.29,1.31-4.63,1.8-7.01.97-4.76,1.48-9.68,1.48-14.71h0c0-.12-.02-.23-.02-.35Z"/>
      <path class="cls-1" d="M1167.58,126.19c-.23-1.51-.5-3-.8-4.48-4.24-20.74-15.54-38.91-31.28-51.9-1.12-.93-2.27-1.83-3.44-2.7-15.19-11.36-34.04-18.08-54.46-18.08v.02c-.44,0-.88-.03-1.32-.03h-165.19v245.73h102.79v-63.71l65.31.1h0s0,0,0,0l-1.55-.05h-.05c12.57,0,24.54-2.55,35.43-7.16,9.53-4.03,18.23-9.64,25.77-16.49,4.31-3.92,8.24-8.24,11.74-12.92.87-1.17,1.72-2.36,2.54-3.57,9.82-14.53,15.55-32.04,15.55-50.89h0c0-4.71-.36-9.34-1.05-13.86Z"/>
      <path class="cls-1" d="M1440.61,97.55c-1.13-1.85-2.3-3.67-3.51-5.46-6.06-8.96-13.16-17.15-21.14-24.4-1.6-1.45-3.23-2.86-4.89-4.24-9.98-8.24-21.16-15.07-33.24-20.19-2.01-.85-4.05-1.66-6.11-2.41-14.43-5.29-30.01-8.19-46.26-8.19s-31.83,2.89-46.26,8.19c-2.06.76-4.1,1.56-6.11,2.41-12.08,5.12-23.26,11.95-33.24,20.19-1.66,1.37-3.29,2.79-4.89,4.24-7.98,7.25-15.08,15.44-21.14,24.4-1.21,1.79-2.38,3.61-3.51,5.46-12.39,20.36-19.52,44.25-19.52,69.78h0c0,11.6,1.47,22.87,4.25,33.62.55,2.15,1.16,4.28,1.82,6.39,1.31,4.21,2.83,8.34,4.54,12.37,1.71,4.03,3.6,7.95,5.68,11.77,9.34,17.17,22.31,32.1,37.87,43.74,1.73,1.29,3.49,2.55,5.28,3.76,21.5,14.54,47.4,23.03,75.24,23.03s53.75-8.5,75.24-23.03c1.79-1.21,3.55-2.46,5.28-3.76,15.56-11.64,28.53-26.57,37.87-43.74,2.08-3.82,3.97-7.74,5.68-11.77,1.71-4.03,3.22-8.15,4.54-12.37.66-2.11,1.26-4.24,1.82-6.39,2.77-10.75,4.25-22.01,4.25-33.62h0c0-25.53-7.14-49.42-19.52-69.78Z"/>
      <path class="cls-1" d="M1746.04,140.06c0-4.71-.36-9.34-1.05-13.86-.23-1.51-.5-3-.8-4.48-4.24-20.74-15.54-38.91-31.28-51.9-1.12-.93-2.27-1.83-3.44-2.7-15.19-11.36-34.04-18.08-54.46-18.08h0v.02c-.44,0-.88-.03-1.32-.03h-165.19v245.73h102.79v-63.71l65.31.1h0s0,0,0,0l-1.6-.05c23.57,0,45.04-8.95,61.21-23.65,4.31-3.92,8.24-8.24,11.74-12.92.87-1.17,1.72-2.36,2.54-3.57,9.82-14.53,15.55-32.04,15.55-50.89h0Z"/>
      <path class="cls-1" d="M821.29,128.88c19.42,5.86,37.77,18.09,50.09,34.46,7.88,10.47,13.45,22.15,16.54,34.53V44.39l-66.8,84.44.17.05ZM878.59,71.2v86.21c-10.58-13.93-25.52-25.49-42.2-32.86l42.2-53.35Z"/>
      <path class="cls-1" d="M1655.01,16.3h-199.01v46.36c-3.82-4.75-7.9-9.3-12.23-13.63C1412.17,17.43,1370.16.02,1325.46.02s-86.7,17.4-118.3,49c-8.66,8.66-16.31,18.18-22.84,28.43-21.95-37.66-62.12-61.15-106.72-61.15l-392.03.12c-.21,0-.42,0-.63.01-10.43.12-20.43,1.62-29.76,4.46l-.32.09c-.3.08-.59.17-.88.26-.43.14-.82.27-1.21.4l-.48.16c-3.05,1.01-6.03,2.16-8.94,3.43l6.78-8.57-130.46-.04C497.11,5.75,471.99,0,446.87,0s-50.3,5.76-72.87,16.67h-130.39l56.14,70.93c-8.52,15.71-14.48,32.85-17.6,50.55-.61-.48-1.23-.96-1.85-1.42,4.15-10.43,6.33-21.57,6.33-32.64,0-48.2-39.11-87.41-87.18-87.41L0,16.52l.03,310.92h217.05c41.15,0,78.05-24.21,95.34-60.73,31.37,42.3,81.34,67.91,134.44,67.91,43.3,0,84.39-16.54,115.71-46.58,25.61-24.56,42.5-56.01,48.81-90.27,3.76,3.94,7.54,7.11,11.89,10.02,4.32,3.18,8.87,6.03,13.59,8.51l-87.89,111.09h245.49c33.87,0,64.61-16.17,84.12-42.07v42.13h167.8v-63.81l31.32-.04c34.53-.03,67.16-14.49,90.37-39.39,8.29,22.95,21.6,43.92,39.09,61.41,31.6,31.6,73.62,49,118.3,49s86.7-17.4,118.31-49c4.34-4.34,8.42-8.89,12.23-13.63v55.46h167.8v-63.81l31.32-.04c68.12-.06,123.55-55.53,123.55-123.66s-55.47-123.66-123.66-123.66ZM1655.11,254.29l-40.63.05v63.79h-149.15v-77.21c-7.32,13.87-16.75,26.71-28.15,38.12-29.84,29.84-69.51,46.27-111.71,46.27s-81.87-16.43-111.71-46.27c-20.85-20.85-35.12-46.5-41.85-74.45-20.59,29.98-55.09,49.67-94.21,49.7l-40.63.05v63.79h-149.15v-73.75c-10.42,42.05-48.35,73.67-93.44,73.68h-226.23l83.33-105.33c-8.26-3.16-15.95-7.41-22.95-12.59-5-3.32-8.92-6.88-12.99-11.56-4.08-4.34-7.73-9.08-10.96-14.11-3.77,83.79-73.1,150.81-157.8,150.81-58.4,0-109.46-31.88-136.8-79.12-11.02,41.18-48.53,71.93-92.99,71.94H9.36s-.03-292.26-.03-292.26l190.12.15c42.93,0,77.86,35.03,77.86,78.09,0,12.55-3.09,24.87-8.69,35.87,7.63,4.88,14.57,10.84,20.59,17.65,1.53-24.99,8.92-49.25,21.65-70.7l.1-.16-48.08-60.75h113.22l.13-.03c21.78-10.89,46.2-16.64,70.64-16.64s48.85,5.75,70.64,16.64l113.36.03-47.97,60.61-.12.15.1.16c3.11,5.24,5.84,10.68,8.31,16.23,6.82-34.06,31.6-61.7,64.07-72.49.5-.17,1-.35,1.5-.51.37-.12.75-.22,1.13-.33,8.59-2.62,17.68-3.95,27.11-4.06.19,0,.38-.01.57-.01l392.03-.12c48.12,0,89.26,29.74,106.14,71.82,7.55-15.29,17.61-29.42,30.02-41.83,29.84-29.84,69.51-46.27,111.71-46.27s81.87,16.43,111.71,46.27c11.4,11.4,20.83,24.25,28.15,38.12V25.62h189.69c63.15,0,114.34,51.19,114.34,114.34s-51.14,114.28-114.24,114.33Z"/>
      <path class="cls-1" d="M234.39,150.33s-.05-.01-.13-.03c-.02,0-.06-.01-.08-.02-.07-.02-.15-.03-.26-.06-.03,0-.07-.02-.11-.02-.28-.06-.63-.13-1-.2-.08-.02-.16-.03-.24-.04-.13-.03-.26-.05-.39-.07-.09-.02-.17-.03-.26-.04-.12-.02-.24-.04-.35-.06-.09-.01-.16-.02-.24-.03-.1-.01-.2-.03-.28-.04-.07,0-.12,0-.18-.01-.06,0-.14-.01-.18-.01,0,0-.02,0-.03,0,20.53-14.77,23.48-35.38,23.48-45.6,0-36.92-32.62-54.93-50.01-54.93l-171.58-.22v245.81h114.99s69.54,0,69.54,0c40.2,0,72.91-33.36,72.91-73.57,0-33.94-23.6-63-55.58-70.84Z"/>
      <path class="cls-1" d="M511.82,49.32l-.82-.45c-6.69-3.63-13.71-6.63-20.92-9.07-3.32-1.12-6.67-2.16-10.08-3.02-5.39-1.36-10.88-2.4-16.41-3.09-5.53-.69-11.12-1.04-16.72-1.04s-11.18.35-16.72,1.04c-16.6,2.08-32.74,7.22-47.41,15.18l-.83.45h-70.82l28.72,36.29-1.66,2.27c-16.97,23.19-25.93,50.65-25.93,79.42h0c0,13.92,2.12,27.36,6.06,40,3.28,10.54,7.83,20.52,13.46,29.77,3.38,5.55,7.15,10.84,11.27,15.83,24.72,29.94,62.1,49.05,103.87,49.05s79.15-19.11,103.87-49.05c4.12-4.99,7.89-10.28,11.27-15.83,5.63-9.26,10.18-19.24,13.46-29.77,3.94-12.64,6.06-26.08,6.06-40h0c0-10.79-1.26-21.39-3.73-31.65-4.12-17.11-11.6-33.27-22.2-47.76l-1.66-2.27,28.72-36.3h-70.83ZM498.54,217.43c-5.44,0-10.83-.9-16.03-2.66l-.19-.06-35.45,44.77-35.31-44.62-.12-.15-.19.06c-5.21,1.77-10.6,2.67-16.05,2.67-27.61,0-50.07-22.46-50.07-50.08,0-17.81,9.59-34.39,25.05-43.34l17.11,21.62c-9.12,3.32-15.22,12-15.22,21.72,0,12.76,10.38,23.14,23.13,23.14,7.82,0,15.01-3.89,19.32-10.44l32.35,40.88,32.35-40.87c4.31,6.53,11.5,10.42,19.3,10.42,12.76,0,23.13-10.38,23.13-23.14,0-9.7-6.09-18.37-15.19-21.7l17.11-21.61c15.44,8.95,25.02,25.52,25.02,43.31,0,27.61-22.46,50.08-50.07,50.08Z"/>
    </g>
  </g>
</svg>